<mxfile host="Electron" modified="2023-12-11T10:57:15.369Z" agent="Mozilla/5.0 (Windows NT 10.0; Win64; x64) AppleWebKit/537.36 (KHTML, like Gecko) draw.io/21.8.2 Chrome/114.0.5735.289 Electron/25.8.1 Safari/537.36" etag="4wF5rCvRAT2wm_vNjlSy" version="21.8.2" type="device">
  <diagram id="C5RBs43oDa-KdzZeNtuy" name="Page-1">
    <mxGraphModel dx="1085" dy="1183" grid="1" gridSize="10" guides="1" tooltips="1" connect="1" arrows="1" fold="1" page="1" pageScale="1" pageWidth="827" pageHeight="1169" math="0" shadow="0">
      <root>
        <mxCell id="WIyWlLk6GJQsqaUBKTNV-0" />
        <mxCell id="WIyWlLk6GJQsqaUBKTNV-1" parent="WIyWlLk6GJQsqaUBKTNV-0" />
        <mxCell id="9uUAbHtgEVjqh5BdNgfr-8" style="edgeStyle=orthogonalEdgeStyle;rounded=0;orthogonalLoop=1;jettySize=auto;html=1;exitX=0.5;exitY=1;exitDx=0;exitDy=0;entryX=0.5;entryY=0;entryDx=0;entryDy=0;" edge="1" parent="WIyWlLk6GJQsqaUBKTNV-1" source="9uUAbHtgEVjqh5BdNgfr-0" target="9uUAbHtgEVjqh5BdNgfr-3">
          <mxGeometry relative="1" as="geometry" />
        </mxCell>
        <mxCell id="9uUAbHtgEVjqh5BdNgfr-0" value="&amp;nbsp;Console.WriteLine(&quot;While ja do&quot;);" style="rounded=1;whiteSpace=wrap;html=1;" vertex="1" parent="WIyWlLk6GJQsqaUBKTNV-1">
          <mxGeometry x="250" y="210" width="194" height="60" as="geometry" />
        </mxCell>
        <mxCell id="9uUAbHtgEVjqh5BdNgfr-9" style="edgeStyle=orthogonalEdgeStyle;rounded=0;orthogonalLoop=1;jettySize=auto;html=1;exitX=0.5;exitY=1;exitDx=0;exitDy=0;entryX=0.5;entryY=0;entryDx=0;entryDy=0;" edge="1" parent="WIyWlLk6GJQsqaUBKTNV-1" source="9uUAbHtgEVjqh5BdNgfr-1" target="9uUAbHtgEVjqh5BdNgfr-0">
          <mxGeometry relative="1" as="geometry" />
        </mxCell>
        <mxCell id="9uUAbHtgEVjqh5BdNgfr-1" value="Start" style="ellipse;whiteSpace=wrap;html=1;" vertex="1" parent="WIyWlLk6GJQsqaUBKTNV-1">
          <mxGeometry x="294" y="100" width="120" height="80" as="geometry" />
        </mxCell>
        <mxCell id="9uUAbHtgEVjqh5BdNgfr-11" style="edgeStyle=orthogonalEdgeStyle;rounded=0;orthogonalLoop=1;jettySize=auto;html=1;exitX=0.5;exitY=1;exitDx=0;exitDy=0;" edge="1" parent="WIyWlLk6GJQsqaUBKTNV-1" source="9uUAbHtgEVjqh5BdNgfr-2" target="9uUAbHtgEVjqh5BdNgfr-7">
          <mxGeometry relative="1" as="geometry" />
        </mxCell>
        <mxCell id="9uUAbHtgEVjqh5BdNgfr-2" value="&lt;b&gt;do&lt;/b&gt;" style="rounded=1;whiteSpace=wrap;html=1;" vertex="1" parent="WIyWlLk6GJQsqaUBKTNV-1">
          <mxGeometry x="280" y="370" width="120" height="60" as="geometry" />
        </mxCell>
        <mxCell id="9uUAbHtgEVjqh5BdNgfr-10" style="edgeStyle=orthogonalEdgeStyle;rounded=0;orthogonalLoop=1;jettySize=auto;html=1;exitX=0.5;exitY=1;exitDx=0;exitDy=0;" edge="1" parent="WIyWlLk6GJQsqaUBKTNV-1" source="9uUAbHtgEVjqh5BdNgfr-3" target="9uUAbHtgEVjqh5BdNgfr-2">
          <mxGeometry relative="1" as="geometry" />
        </mxCell>
        <mxCell id="9uUAbHtgEVjqh5BdNgfr-16" style="edgeStyle=orthogonalEdgeStyle;rounded=0;orthogonalLoop=1;jettySize=auto;html=1;exitX=1;exitY=0.5;exitDx=0;exitDy=0;entryX=1;entryY=0.5;entryDx=0;entryDy=0;" edge="1" parent="WIyWlLk6GJQsqaUBKTNV-1" source="9uUAbHtgEVjqh5BdNgfr-3" target="9uUAbHtgEVjqh5BdNgfr-6">
          <mxGeometry relative="1" as="geometry" />
        </mxCell>
        <mxCell id="9uUAbHtgEVjqh5BdNgfr-3" value="int number = 1;" style="rounded=1;whiteSpace=wrap;html=1;" vertex="1" parent="WIyWlLk6GJQsqaUBKTNV-1">
          <mxGeometry x="260" y="290" width="160" height="60" as="geometry" />
        </mxCell>
        <mxCell id="9uUAbHtgEVjqh5BdNgfr-6" value="while (number &amp;lt;= 5);" style="rhombus;whiteSpace=wrap;html=1;" vertex="1" parent="WIyWlLk6GJQsqaUBKTNV-1">
          <mxGeometry x="260" y="520" width="150" height="80" as="geometry" />
        </mxCell>
        <mxCell id="9uUAbHtgEVjqh5BdNgfr-14" style="edgeStyle=orthogonalEdgeStyle;rounded=0;orthogonalLoop=1;jettySize=auto;html=1;exitX=0.5;exitY=1;exitDx=0;exitDy=0;entryX=0.5;entryY=0;entryDx=0;entryDy=0;" edge="1" parent="WIyWlLk6GJQsqaUBKTNV-1" source="9uUAbHtgEVjqh5BdNgfr-7" target="9uUAbHtgEVjqh5BdNgfr-6">
          <mxGeometry relative="1" as="geometry" />
        </mxCell>
        <mxCell id="9uUAbHtgEVjqh5BdNgfr-7" value="&lt;div&gt;&amp;nbsp;Console.Write(number);&lt;/div&gt;&lt;div&gt;&amp;nbsp;number++;&lt;/div&gt;" style="rounded=1;whiteSpace=wrap;html=1;" vertex="1" parent="WIyWlLk6GJQsqaUBKTNV-1">
          <mxGeometry x="280" y="440" width="120" height="60" as="geometry" />
        </mxCell>
        <mxCell id="9uUAbHtgEVjqh5BdNgfr-15" style="edgeStyle=orthogonalEdgeStyle;rounded=0;orthogonalLoop=1;jettySize=auto;html=1;exitX=0;exitY=0.5;exitDx=0;exitDy=0;entryX=0.006;entryY=0.4;entryDx=0;entryDy=0;entryPerimeter=0;" edge="1" parent="WIyWlLk6GJQsqaUBKTNV-1" source="9uUAbHtgEVjqh5BdNgfr-6" target="9uUAbHtgEVjqh5BdNgfr-3">
          <mxGeometry relative="1" as="geometry" />
        </mxCell>
        <mxCell id="9uUAbHtgEVjqh5BdNgfr-17" value="" style="ellipse;whiteSpace=wrap;html=1;" vertex="1" parent="WIyWlLk6GJQsqaUBKTNV-1">
          <mxGeometry x="275" y="610" width="120" height="80" as="geometry" />
        </mxCell>
      </root>
    </mxGraphModel>
  </diagram>
</mxfile>
